<?xml version="1.0" standalone="no"?><svg xmlns="http://www.w3.org/2000/svg" viewBox="0 0 1440 320"><path fill="#2596be" fill-opacity="0.9" d="M0,192L24,165.3C48,139,96,85,144,58.7C192,32,240,32,288,42.7C336,53,384,75,432,117.3C480,160,528,224,576,250.7C624,277,672,267,720,250.7C768,235,816,213,864,186.7C912,160,960,128,1008,106.7C1056,85,1104,75,1152,96C1200,117,1248,171,1296,202.7C1344,235,1392,245,1416,250.7L1440,256L1440,0L1416,0C1392,0,1344,0,1296,0C1248,0,1200,0,1152,0C1104,0,1056,0,1008,0C960,0,912,0,864,0C816,0,768,0,720,0C672,0,624,0,576,0C528,0,480,0,432,0C384,0,336,0,288,0C240,0,192,0,144,0C96,0,48,0,24,0L0,0Z"></path></svg>