<?xml version="1.0" standalone="no"?><svg xmlns="http://www.w3.org/2000/svg" viewBox="0 0 1440 320"><path fill="#119cb5" fill-opacity="1" d="M0,32L34.3,42.7C68.6,53,137,75,206,74.7C274.3,75,343,53,411,80C480,107,549,181,617,208C685.7,235,754,213,823,218.7C891.4,224,960,256,1029,272C1097.1,288,1166,288,1234,282.7C1302.9,277,1371,267,1406,261.3L1440,256L1440,0L1405.7,0C1371.4,0,1303,0,1234,0C1165.7,0,1097,0,1029,0C960,0,891,0,823,0C754.3,0,686,0,617,0C548.6,0,480,0,411,0C342.9,0,274,0,206,0C137.1,0,69,0,34,0L0,0Z"></path></svg>